<svg xmlns="http://www.w3.org/2000/svg" viewBox="0 0 60 60" class="c-logo ">
    <path style="fill:#74C595;" d="M15.32,40.15H4.11c.12.29.24.56.38.86H16.34Zm4.86,3.43H5.82c.18.28.35.57.54.84H21.81c-.55-.29-1.1-.56-1.63-.85Zm-2.76-1.73H4.9c.13.29.29.58.44.86h13.4C18.29,42.43,17.88,42.14,17.42,41.85ZM48.33,47.8h8L57,47H52.52C51.18,47.3,49.79,47.58,48.33,47.8ZM28.92,47H8.21q.34.43.72.84H33.11c-1.42-.22-2.81-.5-4.15-.84ZM10.22,31.71H2.05v.86h8.36a8.23,8.23,0,0,1-.19-.86Zm3.44,6.87H3.45c.1.3.19.57.31.85H14.45a5,5,0,0,0-.79-1Zm-2.3-3.43H2.51A4.66,4.66,0,0,0,2.7,36h9.1Zm1,1.72H2.92a3.55,3.55,0,0,0,.26.84H13Zm-1.73-3.44H2.22a4.17,4.17,0,0,0,.14.86h8.58a8.67,8.67,0,0,0-.29-1Zm13.1,12H6.92l.62.85H26a13.08,13.08,0,0,0-2.25-1Zm-9,7.48H50.53l1.2-.85H13.55ZM58.1,31.72H10.55a6,6,0,0,0,.82.85H57.24a6.91,6.91,0,0,0,.86-.85Zm.53-17.49c-.31-.44-.62-.89-1-1.34H55c1.24.4,2.43.86,3.59,1.34Zm-46.16,37H52.81c.34-.27.69-.56,1-.85H11.47C11.8,50.6,12.13,51,12.47,51.22ZM54.6,9.49H10.68c-.29.28-.58.55-.85.84H55.46ZM32.65.8a32.9,32.9,0,0,0-8.09,1H40.74A33,33,0,0,0,32.65.8ZM10.55,27.37H58a5.83,5.83,0,0,0-.88-.84H11.47A6.65,6.65,0,0,0,10.55,27.37Zm10.85,29H43.86c.7-.27,1.41-.55,2.08-.86H19.32c.69.28,1.39.59,2.12.86ZM37.46,37.59a66.07,66.07,0,0,0,8.19-.84H22.86a65.59,65.59,0,0,0,8.16.84ZM10.55,49.52H54.72c.29-.27.57-.56.84-.85H9.71Zm47.17-3.43c.31-.4.6-.81.88-1.22a33.28,33.28,0,0,1-3.18,1.22ZM17.61,54.68H47.69c.5-.26,1-.55,1.5-.85H16.09c.5.21,1,.54,1.52.79Zm8.82-41.86H7.64c-.22.28-.42.57-.63.86h17C24.84,13.44,25.63,13.15,26.43,12.82ZM34,11.1H9l-.72.84H29.44c1.46-.25,3-.55,4.52-.75ZM14.57,19.69H3.8l-.31.85h10.3A5.7,5.7,0,0,1,14.57,19.69ZM32.65,58.32a32.8,32.8,0,0,0,8.59-1.14H24.06a32.8,32.8,0,0,0,8.59,1.14ZM18.93,16.26H5.4l-.47.86H17.64C18.05,16.86,18.48,16.57,18.93,16.26Zm33.5,18.79H16.15c.84.29,1.71.58,2.76.84H49.65C50.65,35.63,51.58,35.34,52.43,35.05ZM22.09,14.54H6.43l-.52.86h14.5C21,15.16,21.5,14.87,22.09,14.54ZM47.45,4.37H17.83c-.52.28-1,.55-1.53.86H48.93A16.76,16.76,0,0,0,47.45,4.37ZM52,12h4.9l-.74-.84H47.52q2.28.32,4.5.84ZM43.54,2.67H21.76c-.74.26-1.46.54-2.15.85H45.67c-.69-.32-1.41-.59-2.13-.85Zm9.13,5.16H12.61c-.34.25-.67.55-1,.84H53.67a9.26,9.26,0,0,0-1-.88ZM50.34,6.11H14.94c-.43.27-.82.57-1.22.86H51.51a7.22,7.22,0,0,0-1.17-.89ZM16.49,18h-12c-.12.29-.26.58-.38.86H15.48ZM11,24.85H2.42a1.77,1.77,0,0,1-.13.85h8.4A6.19,6.19,0,0,1,11,24.85Zm.88-1.72H2.73a4.27,4.27,0,0,1-.19.86h8.87A6.53,6.53,0,0,1,11.89,23.13Zm46.74,5.15H2v.84h56.9a3.47,3.47,0,0,0-.22-.84Zm-2.49,5.15H12.49a17.8,17.8,0,0,0,1.58.86H54.49a14.76,14.76,0,0,0,1.58-1ZM2,30v.86H58.63a3.14,3.14,0,0,0,.24-.86Zm21.66-7.73H44.89a67,67,0,0,0-21.27,0ZM10.43,26.56H2.13v.84h8.11A6.34,6.34,0,0,1,10.43,26.56Zm2.63-5.15H3.21a4.24,4.24,0,0,1-.25.86h9.46c.21-.29.41-.58.63-.86ZM16.49,24H52.07c-.91-.31-1.87-.6-2.9-.86H19.39c-1,.26-2,.55-2.9.86Zm-3.8,1.72H55.87a16.23,16.23,0,0,0-1.72-.86H14.33a16.88,16.88,0,0,0-1.64.84Z" class="c-logo__symbol "></path>
</svg>